<?xml version="1.0" encoding="utf-8"?>
<!-- Generator: Adobe Illustrator 22.0.1, SVG Export Plug-In . SVG Version: 6.00 Build 0)  -->
<svg version="1.1" id="Camada_1" xmlns="http://www.w3.org/2000/svg" xmlns:xlink="http://www.w3.org/1999/xlink" x="0px" y="0px"
	 viewBox="0 0 1460 162" style="enable-background:new 0 0 1460 162;" xml:space="preserve">
<style type="text/css">
	.st0{fill:#636363;}
	.st1{fill:#F2AD3D;}
</style>
<g>
	<path class="st0" d="M137,21.6c13.3-1.4,29-2.5,46.3-2.5c31.3,0,53.6,5.1,68.4,14.7c15,9.6,23.8,23.3,23.8,42.4
		c0,19.3-8.5,35.1-24.3,45.9c-15.8,11-41.8,17-74.6,17c-15.5,0-28.5-0.5-39.6-1.4V21.6z M158.8,126.1c5.5,0.7,13.5,0.9,22,0.9
		c46.6,0,71.9-18.2,71.9-50.1c0.3-27.9-22.3-45.6-68.4-45.6c-11.3,0-19.8,0.7-25.5,1.6V126.1z"/>
	<path class="st0" d="M300.8,119.6c9.8,4.2,24,7.7,39.1,7.7c22.3,0,35.3-8.2,35.3-20.2c0-11-9-17.4-31.8-23.5
		c-27.5-6.8-44.6-16.8-44.6-33.5c0-18.4,21.8-32.1,54.6-32.1c17.3,0,29.8,2.8,37.3,5.8l-6,12.4c-5.5-2.1-16.8-5.6-32.1-5.6
		c-23,0-31.8,9.6-31.8,17.7c0,11,10.3,16.5,33.6,22.8c28.5,7.7,43.1,17.4,43.1,34.7c0,18.2-19.3,34-59.1,34
		c-16.3,0-34.1-3.3-43.1-7.5L300.8,119.6z"/>
	<path class="st1" d="M508.4,138.2L453.3,20h23.5l26.3,58.2c7.3,16,13.5,30.3,18,44.2h0.5c4.8-13.7,11.8-28.6,19.3-44L569.5,20h23.3
		l-60.4,118.2H508.4z"/>
	<path class="st1" d="M698.5,82.8h-65.6v42.6H706v12.8h-94.9V20h91.2v12.8h-69.4v37.3h65.6V82.8z"/>
	<path class="st1" d="M734.3,138.2V20h23.8l54.1,59.8c12.5,13.9,22.3,26.3,30.3,38.4l0.5-0.2c-2-15.8-2.5-30.2-2.5-48.6V20H861
		v118.2h-22l-53.6-60c-11.8-13.1-23-26.6-31.6-39.4l-0.8,0.2c1.3,14.9,1.8,29.1,1.8,48.7v50.5H734.3z"/>
	<path class="st1" d="M899.1,21.6c13.3-1.4,29-2.5,46.3-2.5c31.3,0,53.6,5.1,68.4,14.7c15,9.6,23.8,23.3,23.8,42.4
		c0,19.3-8.5,35.1-24.3,45.9c-15.8,11-41.8,17-74.6,17c-15.5,0-28.5-0.5-39.6-1.4V21.6z M920.9,126.1c5.5,0.7,13.5,0.9,22,0.9
		c46.6,0,71.9-18.2,71.9-50.1c0.3-27.9-22.3-45.6-68.4-45.6c-11.3,0-19.8,0.7-25.5,1.6V126.1z"/>
	<path class="st1" d="M1089.6,101l-17.5,37.2h-22.5L1106.9,20h26.3l57.6,118.2h-23.3l-18-37.2H1089.6z M1145,89.1l-16.5-34
		c-3.8-7.7-6.3-14.7-8.8-21.6h-0.5c-2.5,7-5.3,14.2-8.5,21.4l-16.5,34.2H1145z"/>
	<path class="st1" d="M1212.6,119.6c9.8,4.2,24,7.7,39.1,7.7c22.3,0,35.3-8.2,35.3-20.2c0-11-9-17.4-31.8-23.5
		c-27.5-6.8-44.6-16.8-44.6-33.5c0-18.4,21.8-32.1,54.6-32.1c17.3,0,29.8,2.8,37.3,5.8l-6,12.4c-5.5-2.1-16.8-5.6-32.1-5.6
		c-23,0-31.8,9.6-31.8,17.7c0,11,10.3,16.5,33.6,22.8c28.5,7.7,43.1,17.4,43.1,34.7c0,18.2-19.3,34-59.1,34
		c-16.3,0-34.1-3.3-43.1-7.5L1212.6,119.6z"/>
</g>
</svg>
